# xmcd
#
# Track frame offsets:
#	150
#	36686
#	60437
#	72545
#	96832
#	121345
#	136435
#
# Disc length: 2033 seconds
#
# Revision: 1
# Processed by: cddbd v1.4PL0 Copyright (c) Steve Scherf et al.
# Submitted via: audiograbber 1.80.04
#
DISCID=6907ef07
DTITLE=Youssou N'Dour - Moor Ndaje
DYEAR=2002
DGENRE=Pop-Folk
TTITLE0=Genne
TTITLE1=Batay
TTITLE2=Le Climat
TTITLE3=Bey
TTITLE4=Sa Dole
TTITLE5=Xu Loobi
TTITLE6=Bird
EXTD=
EXTT0=
EXTT1=
EXTT2=
EXTT3=
EXTT4=
EXTT5=
EXTT6=
PLAYORDER=
